{
    "asset" : {
        "generator" : "Khronos glTF Blender I/O v3.3.32",
        "version" : "2.0"
    },
    "scene" : 0,
    "scenes" : [
        {
            "name" : "Scene",
            "nodes" : [
                31
            ]
        }
    ],
    "nodes" : [
        {
            "mesh" : 0,
            "name" : "Material2",
            "translation" : [
                0.6388060450553894,
                0.1049238070845604,
                0.2370755523443222
            ]
        },
        {
            "children" : [
                0
            ],
            "name" : "pitua"
        },
        {
            "children" : [
                1
            ],
            "name" : "instance_0",
            "translation" : [
                -1.085062026977539,
                1.6488441228866577,
                0
            ]
        },
        {
            "mesh" : 1,
            "name" : "Material2.001",
            "translation" : [
                -0.1625790297985077,
                0.0028019261080771685,
                0.7422654628753662
            ]
        },
        {
            "children" : [
                3
            ],
            "name" : "temp"
        },
        {
            "children" : [
                4
            ],
            "name" : "instance_1",
            "translation" : [
                -1.085062026977539,
                1.6488441228866577,
                0
            ]
        },
        {
            "mesh" : 2,
            "name" : "Material2.002",
            "translation" : [
                -1.4075642824172974,
                0.005647871643304825,
                2.499634027481079
            ]
        },
        {
            "name" : "Material2.003",
            "translation" : [
                -1.3703643083572388,
                0.386522114276886,
                2.451732635498047
            ]
        },
        {
            "children" : [
                6,
                7
            ],
            "name" : "pariet"
        },
        {
            "children" : [
                8
            ],
            "name" : "instance_2",
            "translation" : [
                -1.085062026977539,
                1.6488441228866577,
                0
            ]
        },
        {
            "mesh" : 3,
            "name" : "Material2.004",
            "translation" : [
                -0.025978686287999153,
                0.10244099050760269,
                0.809222400188446
            ]
        },
        {
            "children" : [
                10
            ],
            "name" : "stem"
        },
        {
            "children" : [
                11
            ],
            "name" : "instance_3",
            "translation" : [
                -1.085062026977539,
                1.6488441228866577,
                0
            ]
        },
        {
            "mesh" : 4,
            "name" : "Material2.005",
            "translation" : [
                -2.579857587814331,
                0.0006327519658952951,
                0.7817360758781433
            ]
        },
        {
            "children" : [
                13
            ],
            "name" : "occipit"
        },
        {
            "children" : [
                14
            ],
            "name" : "instance_4",
            "translation" : [
                -1.085062026977539,
                1.6488441228866577,
                0
            ]
        },
        {
            "mesh" : 5,
            "name" : "Material2.006",
            "translation" : [
                1.3038990497589111,
                0.0012422624276950955,
                2.2516984939575195
            ]
        },
        {
            "name" : "Material2.007",
            "translation" : [
                2.6184356212615967,
                0.1678728312253952,
                1.9742234945297241
            ]
        },
        {
            "children" : [
                16,
                17
            ],
            "name" : "frontal"
        },
        {
            "children" : [
                18
            ],
            "name" : "instance_5",
            "translation" : [
                -1.085062026977539,
                1.6488441228866577,
                0
            ]
        },
        {
            "mesh" : 6,
            "name" : "Material2.008",
            "translation" : [
                -0.21638287603855133,
                0,
                1.8286744356155396
            ]
        },
        {
            "children" : [
                20
            ],
            "name" : "corpus"
        },
        {
            "children" : [
                21
            ],
            "name" : "instance_6",
            "translation" : [
                -1.085062026977539,
                1.6488441228866577,
                0
            ]
        },
        {
            "mesh" : 7,
            "name" : "Material2.009",
            "translation" : [
                -1.2556051015853882,
                0.10591352730989456,
                -0.28504133224487305
            ]
        },
        {
            "name" : "Material2.010",
            "translation" : [
                -1.074644684791565,
                0.062162164598703384,
                -0.3045485019683838
            ]
        },
        {
            "children" : [
                23,
                24
            ],
            "name" : "cereb"
        },
        {
            "children" : [
                25
            ],
            "name" : "instance_7",
            "translation" : [
                -1.085062026977539,
                1.6488441228866577,
                0
            ]
        },
        {
            "name" : "ID1"
        },
        {
            "children" : [
                27
            ],
            "name" : "skp_camera_Last_Saved_SketchUp_View",
            "rotation" : [
                0.4552512764930725,
                0.5188714861869812,
                0.5438798069953918,
                0.47719326615333557
            ],
            "translation" : [
                13.04623031616211,
                3.623148202896118,
                1.3001439571380615
            ]
        },
        {
            "children" : [
                2,
                5,
                9,
                12,
                15,
                19,
                22,
                26,
                28
            ],
            "name" : "SketchUp"
        },
        {
            "children" : [
                29
            ],
            "name" : "Collada visual scene group"
        },
        {
            "children" : [
                30
            ],
            "name" : "Sketchfab_model",
            "rotation" : [
                -0.7071068286895752,
                0,
                0,
                0.7071067094802856
            ],
            "translation" : [
                1.0640846490859985,
                -0.42668426036834717,
                1.6516869068145752
            ]
        }
    ],
    "materials" : [
        {
            "name" : "material",
            "pbrMetallicRoughness" : {
                "baseColorFactor" : [
                    0.8901960253715515,
                    0.8823530077934265,
                    0.8705880045890808,
                    1
                ],
                "metallicFactor" : 0,
                "roughnessFactor" : 0.6000000238418579
            }
        },
        {
            "name" : "Color_A06",
            "pbrMetallicRoughness" : {
                "baseColorFactor" : [
                    0.800000011920929,
                    0,
                    0,
                    1
                ],
                "metallicFactor" : 0,
                "roughnessFactor" : 0.6000000238418579
            }
        }
    ],
    "meshes" : [
        {
            "name" : "Material2",
            "primitives" : [
                {
                    "attributes" : {
                        "POSITION" : 0,
                        "NORMAL" : 1
                    },
                    "indices" : 2,
                    "material" : 0
                }
            ]
        },
        {
            "name" : "Material2.001",
            "primitives" : [
                {
                    "attributes" : {
                        "POSITION" : 3,
                        "NORMAL" : 4
                    },
                    "indices" : 5,
                    "material" : 0
                }
            ]
        },
        {
            "name" : "Material2.002",
            "primitives" : [
                {
                    "attributes" : {
                        "POSITION" : 6,
                        "NORMAL" : 7
                    },
                    "indices" : 8,
                    "material" : 0
                }
            ]
        },
        {
            "name" : "Material2.004",
            "primitives" : [
                {
                    "attributes" : {
                        "POSITION" : 9,
                        "NORMAL" : 10
                    },
                    "indices" : 11,
                    "material" : 0
                }
            ]
        },
        {
            "name" : "Material2.005",
            "primitives" : [
                {
                    "attributes" : {
                        "POSITION" : 12,
                        "NORMAL" : 13
                    },
                    "indices" : 14,
                    "material" : 0
                }
            ]
        },
        {
            "name" : "Material2.006",
            "primitives" : [
                {
                    "attributes" : {
                        "POSITION" : 15,
                        "NORMAL" : 16
                    },
                    "indices" : 17,
                    "material" : 0
                }
            ]
        },
        {
            "name" : "Material2.008",
            "primitives" : [
                {
                    "attributes" : {
                        "POSITION" : 18,
                        "NORMAL" : 19
                    },
                    "indices" : 20,
                    "material" : 0
                }
            ]
        },
        {
            "name" : "Material2.009",
            "primitives" : [
                {
                    "attributes" : {
                        "POSITION" : 21,
                        "NORMAL" : 22
                    },
                    "indices" : 23,
                    "material" : 1
                }
            ]
        }
    ],
    "accessors" : [
        {
            "bufferView" : 0,
            "componentType" : 5126,
            "count" : 114,
            "max" : [
                0.24199295043945312,
                0.35069918632507324,
                0.22707250714302063
            ],
            "min" : [
                -0.2419920563697815,
                -0.3507007956504822,
                -0.22707250714302063
            ],
            "type" : "VEC3"
        },
        {
            "bufferView" : 1,
            "componentType" : 5126,
            "count" : 114,
            "type" : "VEC3"
        },
        {
            "bufferView" : 2,
            "componentType" : 5123,
            "count" : 672,
            "type" : "SCALAR"
        },
        {
            "bufferView" : 3,
            "componentType" : 5126,
            "count" : 2974,
            "max" : [
                1.9544700384140015,
                2.6364471912384033,
                1.0014935731887817
            ],
            "min" : [
                -1.8578410148620605,
                -2.6420187950134277,
                -0.8901044726371765
            ],
            "type" : "VEC3"
        },
        {
            "bufferView" : 4,
            "componentType" : 5126,
            "count" : 2974,
            "type" : "VEC3"
        },
        {
            "bufferView" : 5,
            "componentType" : 5123,
            "count" : 17022,
            "type" : "SCALAR"
        },
        {
            "bufferView" : 6,
            "componentType" : 5126,
            "count" : 2121,
            "max" : [
                1.5303122997283936,
                2.474968194961548,
                1.3294119834899902
            ],
            "min" : [
                -1.458499789237976,
                -2.486210823059082,
                -1.2504299879074097
            ],
            "type" : "VEC3"
        },
        {
            "bufferView" : 7,
            "componentType" : 5126,
            "count" : 2121,
            "type" : "VEC3"
        },
        {
            "bufferView" : 8,
            "componentType" : 5123,
            "count" : 11424,
            "type" : "SCALAR"
        },
        {
            "bufferView" : 9,
            "componentType" : 5126,
            "count" : 1743,
            "max" : [
                1.397343635559082,
                1.6309120655059814,
                1.6100667715072632
            ],
            "min" : [
                -1.1597663164138794,
                -1.625885009765625,
                -2.498385429382324
            ],
            "type" : "VEC3"
        },
        {
            "bufferView" : 10,
            "componentType" : 5126,
            "count" : 1743,
            "type" : "VEC3"
        },
        {
            "bufferView" : 11,
            "componentType" : 5123,
            "count" : 10110,
            "type" : "SCALAR"
        },
        {
            "bufferView" : 12,
            "componentType" : 5126,
            "count" : 1427,
            "max" : [
                1.0501165390014648,
                2.431070327758789,
                1.427554965019226
            ],
            "min" : [
                -0.784637451171875,
                -2.432248830795288,
                -1.0410538911819458
            ],
            "type" : "VEC3"
        },
        {
            "bufferView" : 13,
            "componentType" : 5126,
            "count" : 1427,
            "type" : "VEC3"
        },
        {
            "bufferView" : 14,
            "componentType" : 5123,
            "count" : 7989,
            "type" : "SCALAR"
        },
        {
            "bufferView" : 15,
            "componentType" : 5126,
            "count" : 3308,
            "max" : [
                1.7536530494689941,
                2.4584968090057373,
                1.6765475273132324
            ],
            "min" : [
                -2.108384132385254,
                -2.460989236831665,
                -1.6635475158691406
            ],
            "type" : "VEC3"
        },
        {
            "bufferView" : 16,
            "componentType" : 5126,
            "count" : 3308,
            "type" : "VEC3"
        },
        {
            "bufferView" : 17,
            "componentType" : 5123,
            "count" : 19095,
            "type" : "SCALAR"
        },
        {
            "bufferView" : 18,
            "componentType" : 5126,
            "count" : 141,
            "max" : [
                1.7028098106384277,
                0.31427833437919617,
                0.7671204805374146
            ],
            "min" : [
                -1.205039143562317,
                -0.3142746686935425,
                -0.6400433778762817
            ],
            "type" : "VEC3"
        },
        {
            "bufferView" : 19,
            "componentType" : 5126,
            "count" : 141,
            "type" : "VEC3"
        },
        {
            "bufferView" : 20,
            "componentType" : 5123,
            "count" : 576,
            "type" : "SCALAR"
        },
        {
            "bufferView" : 21,
            "componentType" : 5126,
            "count" : 15256,
            "max" : [
                1.0367350578308105,
                2.1213364601135254,
                1.1159822940826416
            ],
            "min" : [
                -1.2331207990646362,
                -2.123218536376953,
                -0.7298417091369629
            ],
            "type" : "VEC3"
        },
        {
            "bufferView" : 22,
            "componentType" : 5126,
            "count" : 15256,
            "type" : "VEC3"
        },
        {
            "bufferView" : 23,
            "componentType" : 5123,
            "count" : 85878,
            "type" : "SCALAR"
        }
    ],
    "bufferViews" : [
        {
            "buffer" : 0,
            "byteLength" : 1368,
            "byteOffset" : 0,
            "target" : 34962
        },
        {
            "buffer" : 0,
            "byteLength" : 1368,
            "byteOffset" : 1368,
            "target" : 34962
        },
        {
            "buffer" : 0,
            "byteLength" : 1344,
            "byteOffset" : 2736,
            "target" : 34963
        },
        {
            "buffer" : 0,
            "byteLength" : 35688,
            "byteOffset" : 4080,
            "target" : 34962
        },
        {
            "buffer" : 0,
            "byteLength" : 35688,
            "byteOffset" : 39768,
            "target" : 34962
        },
        {
            "buffer" : 0,
            "byteLength" : 34044,
            "byteOffset" : 75456,
            "target" : 34963
        },
        {
            "buffer" : 0,
            "byteLength" : 25452,
            "byteOffset" : 109500,
            "target" : 34962
        },
        {
            "buffer" : 0,
            "byteLength" : 25452,
            "byteOffset" : 134952,
            "target" : 34962
        },
        {
            "buffer" : 0,
            "byteLength" : 22848,
            "byteOffset" : 160404,
            "target" : 34963
        },
        {
            "buffer" : 0,
            "byteLength" : 20916,
            "byteOffset" : 183252,
            "target" : 34962
        },
        {
            "buffer" : 0,
            "byteLength" : 20916,
            "byteOffset" : 204168,
            "target" : 34962
        },
        {
            "buffer" : 0,
            "byteLength" : 20220,
            "byteOffset" : 225084,
            "target" : 34963
        },
        {
            "buffer" : 0,
            "byteLength" : 17124,
            "byteOffset" : 245304,
            "target" : 34962
        },
        {
            "buffer" : 0,
            "byteLength" : 17124,
            "byteOffset" : 262428,
            "target" : 34962
        },
        {
            "buffer" : 0,
            "byteLength" : 15978,
            "byteOffset" : 279552,
            "target" : 34963
        },
        {
            "buffer" : 0,
            "byteLength" : 39696,
            "byteOffset" : 295532,
            "target" : 34962
        },
        {
            "buffer" : 0,
            "byteLength" : 39696,
            "byteOffset" : 335228,
            "target" : 34962
        },
        {
            "buffer" : 0,
            "byteLength" : 38190,
            "byteOffset" : 374924,
            "target" : 34963
        },
        {
            "buffer" : 0,
            "byteLength" : 1692,
            "byteOffset" : 413116,
            "target" : 34962
        },
        {
            "buffer" : 0,
            "byteLength" : 1692,
            "byteOffset" : 414808,
            "target" : 34962
        },
        {
            "buffer" : 0,
            "byteLength" : 1152,
            "byteOffset" : 416500,
            "target" : 34963
        },
        {
            "buffer" : 0,
            "byteLength" : 183072,
            "byteOffset" : 417652,
            "target" : 34962
        },
        {
            "buffer" : 0,
            "byteLength" : 183072,
            "byteOffset" : 600724,
            "target" : 34962
        },
        {
            "buffer" : 0,
            "byteLength" : 171756,
            "byteOffset" : 783796,
            "target" : 34963
        }
    ],
    "buffers" : [
        {
            "byteLength" : 955552,
            "uri" : "data:application/octet-stream;base64,"
        }
    ]
}
